<svg xmlns="http://www.w3.org/2000/svg" width="20" height="20" viewBox="0 0 20 20">
    <path fill="#000" fill-opacity=".38" fill-rule="nonzero" d="M9.924 10.87a.484.484 0 1 0-.684-.684l-2.543 2.55V5.028a.483.483 0 0 0-.965 0v7.708l-2.543-2.542a.484.484 0 1 0-.684.684l3.372 3.37a.483.483 0 0 0 .684 0l3.363-3.378zm7.35-2.803l-3.362-3.38a.483.483 0 0 0-.684 0L9.856 8.06a.484.484 0 0 0 .684.683L13.083 6.2v7.708a.483.483 0 1 0 .965 0V6.2l2.543 2.55a.484.484 0 1 0 .684-.683zm-.201 10.316H2.927C1.513 18.378.37 17.358.364 16.099v-4.495c0-.268.244-.486.545-.486.301 0 .546.218.546.486V16.1c-.003.35.151.685.428.933.276.248.652.387 1.044.387h14.146c.392 0 .768-.14 1.044-.387.277-.248.43-.584.428-.933v-4.495c0-.268.245-.486.546-.486.301 0 .545.218.545.486V16.1c0 1.263-1.146 2.287-2.563 2.292v-.008z"/>
</svg>
