<?xml version="1.0" encoding="UTF-8"?>
<svg width="16px" height="16px" viewBox="0 0 16 16" version="1.1" xmlns="http://www.w3.org/2000/svg" xmlns:xlink="http://www.w3.org/1999/xlink">
    <!-- Generator: Sketch 60.1 (88133) - https://sketch.com -->
    <title>Artboard</title>
    <desc>Created with Sketch.</desc>
    <g id="Artboard" stroke="none" stroke-width="1" fill="none" fill-rule="evenodd">
        <path d="M2,12 L2,13 L0,13 L0,12 L2,12 Z M12,12 L12,13 L4,13 L4,12 L12,12 Z M2,8 L2,9 L0,9 L0,8 L2,8 Z M14,8 L14,9 L4,9 L4,8 L14,8 Z M16,4 L16,5 L4,5 L4,4 L16,4 Z M2,4 L2,5 L0,5 L0,4 L2,4 Z" id="Combined-Shape" fill="#00ABFF"></path>
    </g>
</svg>