<svg xmlns="http://www.w3.org/2000/svg" width="16" height="16" viewBox="0 0 16 16">
    <g fill="none" fill-rule="nonzero">
        <path fill="#EA4335" d="M1.932 2.787C5.65-1.54 12.546-.687 15.124 4.37H8.93c-1.116 0-1.837-.025-2.617.386a3.691 3.691 0 0 0-1.852 2.43L1.932 2.787z"/>
        <path fill="#4285F4" d="M5.338 8a2.663 2.663 0 0 0 2.66 2.66A2.663 2.663 0 0 0 10.655 8a2.663 2.663 0 0 0-2.659-2.66A2.663 2.663 0 0 0 5.338 8z"/>
        <path fill="#34A853" d="M9.03 11.482c-1.493.443-3.24-.048-4.196-1.7-.73-1.26-2.66-4.621-3.537-6.15C-1.774 8.34.873 14.755 6.45 15.85l2.58-4.368z"/>
        <path fill="#FBBC05" d="M10.467 5.34a3.643 3.643 0 0 1 .672 4.479 1264.46 1264.46 0 0 1-3.64 6.165c5.745.354 9.932-5.276 8.04-10.645h-5.072z"/>
    </g>
</svg>
