<svg xmlns="http://www.w3.org/2000/svg" width="16" height="15" viewBox="0 0 16 15">
    <path fill="#FF8000" fill-rule="nonzero" d="M5.563 2.576c.062-.53.418-1.216 1.089-1.53-1.008-.154-1.826.314-2.233.915-.647-.138-1.044-.146-1.694-.025-.413-.31-.898-1.017-.86-1.756-.78.912-.941 1.599-.845 2.42-3.005 5.327 1.038 11.733 6.8 11.733 5.176 0 8.18-3.924 8.18-7.945 0-2.712-1.238-5.066-2.503-5.575.472.515 1.008 1.858.905 2.787C13.382.966 10.834-.052 9.975.002c2.823 1.091 3.498 4.805 3.248 5.9-.246-1.284-1.029-2.391-1.497-2.684 2.734 6.348-3.868 8.299-5.883 6.095.52.134 1.545.068 2.313-.442.719-.477.787-.505 1.248-.54.549-.042-.033-1.116-1.23-.934-.494.074-1.306.649-2.305.27C4.663 7.21 4.7 5.58 5.946 6.07c.27-.347.07-1.002.07-1.002.362-.328.819-.56 1.097-.722.182-.107.663-.402.636-.976-.098-.076-.256-.173-.613-.153-1.39.087-1.482-.41-1.573-.64z"/>
</svg>
